# xmcd CD database file
#
# Track frame offsets:
#	150
#	27425
#	50445
#	111974
#	138828
#	164085
#
# Disc length: 2604 seconds
#
# Revision: 0
# Processed by: cddbd v1.5.2PL0 Copyright (c) Steve Scherf et al.
# Submitted via: CDex 1.70beta2
#
DISCID=500a2a06
DTITLE=Mayall, John - Bluesbreakers with Mick Taylor
DYEAR=1969
DGENRE=Blues
TTITLE0=That's All Right Baby
TTITLE1=Checkin' On My Baby
TTITLE2=Parchman Farm
TTITLE3=Time Has Come
TTITLE4=2401
TTITLE5=It's Alright With Me
EXTD=YEAR: 1969
EXTT0=
EXTT1=
EXTT2=
EXTT3=
EXTT4=
EXTT5=
PLAYORDER=
